<svg width="26" height="27" viewBox="0 0 26 27" fill="none" xmlns="http://www.w3.org/2000/svg">
<rect opacity="0.2" width="26" height="27" rx="5" fill="#9529EB"/>
<path d="M10.4292 17.5H13.4699C15.0484 17.5 15.9969 16.7055 15.9969 15.4035C15.9969 14.4393 15.331 13.727 14.3309 13.6238V13.5363C15.0589 13.4138 15.6276 12.7225 15.6276 11.9473C15.6276 10.8098 14.792 10.101 13.4034 10.101H10.4292V17.5ZM11.5781 13.2344V11.0758H13.1356C13.987 11.0758 14.4849 11.4756 14.4849 12.1581C14.4849 12.8599 13.9564 13.2344 12.9414 13.2344H11.5781ZM11.5781 16.5261V14.1418H13.1724C14.2539 14.1418 14.8235 14.5469 14.8235 15.3213C14.8235 16.1053 14.2749 16.5261 13.2389 16.5261H11.5781Z" fill="#9529EB"/>
<path d="M6 10.5C6 9.57174 6.36875 8.6815 7.02513 8.02513C7.6815 7.36875 8.57174 7 9.5 7H16.5C17.4283 7 18.3185 7.36875 18.9749 8.02513C19.6313 8.6815 20 9.57174 20 10.5V17.5C20 18.4283 19.6313 19.3185 18.9749 19.9749C18.3185 20.6313 17.4283 21 16.5 21H9.5C8.57174 21 7.6815 20.6313 7.02513 19.9749C6.36875 19.3185 6 18.4283 6 17.5V10.5ZM9.5 7.875C8.80381 7.875 8.13613 8.15156 7.64384 8.64384C7.15156 9.13613 6.875 9.80381 6.875 10.5V17.5C6.875 18.1962 7.15156 18.8639 7.64384 19.3562C8.13613 19.8484 8.80381 20.125 9.5 20.125H16.5C17.1962 20.125 17.8639 19.8484 18.3562 19.3562C18.8484 18.8639 19.125 18.1962 19.125 17.5V10.5C19.125 9.80381 18.8484 9.13613 18.3562 8.64384C17.8639 8.15156 17.1962 7.875 16.5 7.875H9.5Z" fill="#9529EB"/>
</svg>
