<svg width="26" height="27" viewBox="0 0 26 27" fill="none" xmlns="http://www.w3.org/2000/svg">
<rect opacity="0.2" width="26" height="27" rx="5" fill="#597F9D"/>
<path d="M20.0857 10.985C20.0856 10.6999 20.0246 10.448 19.9013 10.2318C19.7801 10.0192 19.5987 9.84096 19.3554 9.70006C17.347 8.542 15.3366 7.38747 13.3289 6.22822C12.7876 5.91573 12.2628 5.92712 11.7255 6.2441C10.9261 6.71556 6.92372 9.00861 5.73106 9.69941C5.23989 9.98375 5.00089 10.4189 5.00077 10.9845C5 13.3135 5.00077 15.6423 5 17.9713C5.00012 18.2502 5.0585 18.4972 5.17637 18.7102C5.29756 18.9292 5.48149 19.1123 5.73041 19.2564C6.92312 19.9472 10.926 22.2401 11.7253 22.7117C12.2628 23.0288 12.7876 23.0402 13.3291 22.7276C15.3369 21.5683 17.3474 20.4138 19.3561 19.2557C19.605 19.1117 19.7889 18.9285 19.9101 18.7096C20.0278 18.4966 20.0863 18.2496 20.0864 17.9707C20.0864 17.9707 20.0864 13.314 20.0857 10.985Z" fill="#5C8DBC"/>
<path d="M12.5663 14.4552L5.17636 18.7102C5.29755 18.9292 5.48148 19.1123 5.7304 19.2564C6.92311 19.9472 10.926 22.2401 11.7253 22.7117C12.2628 23.0288 12.7876 23.0402 13.329 22.7276C15.3369 21.5683 17.3474 20.4138 19.3561 19.2557C19.605 19.1117 19.7889 18.9285 19.9101 18.7096L12.5663 14.4552Z" fill="#1A4674"/>
<path d="M10.3775 15.7156C10.8075 16.4663 11.6159 16.9726 12.5432 16.9726C13.4763 16.9726 14.2892 16.4599 14.7171 15.7011L12.5663 14.4552L10.3775 15.7156Z" fill="#1A4674"/>
<path d="M20.0857 10.9851C20.0856 10.7 20.0246 10.448 19.9013 10.2318L12.5663 14.4552L19.9101 18.7096C20.0278 18.4966 20.0863 18.2496 20.0864 17.9707C20.0864 17.9707 20.0864 13.3141 20.0857 10.9851Z" fill="#1B598E"/>
<path d="M19.6819 14.7593H19.108V15.3333H18.534V14.7593H17.9602V14.1855H18.534V13.6116H19.108V14.1855H19.6819V14.7593Z" fill="white"/>
<path d="M17.5878 14.7593H17.014V15.3333H16.4402V14.7593H15.8663V14.1855H16.4402V13.6116H17.014V14.1855H17.5878V14.7593Z" fill="white"/>
<path d="M14.7171 15.7011C14.2892 16.4599 13.4763 16.9726 12.5432 16.9726C11.6159 16.9726 10.8075 16.4663 10.3775 15.7156C10.1686 15.3508 10.0485 14.9284 10.0485 14.4779C10.0485 13.1001 11.1654 11.9832 12.5432 11.9832C13.4646 11.9832 14.2687 12.4832 14.7008 13.2263L16.8814 11.9706C16.0147 10.4745 14.3966 9.46796 12.5432 9.46796C9.77621 9.46796 7.53322 11.711 7.53322 14.4779C7.53322 15.3856 7.7747 16.2368 8.19675 16.9711C9.06127 18.4751 10.684 19.4879 12.5432 19.4879C14.4058 19.4879 16.0311 18.4711 16.8944 16.9626L14.7171 15.7011Z" fill="white"/>
</svg>
