<svg width="26" height="27" viewBox="0 0 26 27" fill="none" xmlns="http://www.w3.org/2000/svg">
<rect opacity="0.2" width="26" height="27" rx="5" fill="#659AFF"/>
<path d="M19.3885 7.08937C19.337 7.0325 19.2639 7 19.1875 7H7.8125C7.73559 7 7.663 7.0325 7.61154 7.08937C7.56007 7.14572 7.53516 7.22153 7.54275 7.29791L8.62609 18.1312C8.63638 18.2369 8.70844 18.3273 8.80972 18.3609L13.6847 19.9859C13.7123 19.9957 13.7416 20 13.7703 20C13.8028 20 13.8348 19.994 13.8662 19.9827L18.1995 18.3577C18.2959 18.3219 18.3637 18.2336 18.3739 18.1312L19.4573 7.29791C19.4648 7.22209 19.4399 7.14572 19.3885 7.08937ZM17.8507 17.9097L13.7649 19.4421L9.14716 17.9027L8.11097 7.54166H18.8874L17.8507 17.9097Z" fill="#7672FF"/>
<path d="M17.2277 9.80529C17.1763 9.74407 17.0999 9.70888 17.0203 9.70888H10.5203C10.3708 9.70888 10.2494 9.83022 10.2494 9.97972C10.2494 10.1292 10.3708 10.2506 10.5203 10.2506H16.698L16.3215 12.4167H10.7911C10.6416 12.4167 10.5203 12.538 10.5203 12.6875C10.5203 12.837 10.6416 12.9584 10.7911 12.9584H16.2273L15.6964 16.0096L13.7648 16.7338L11.5673 16.0009L11.3273 14.8012C11.2986 14.6549 11.1573 14.559 11.0088 14.5888C10.8626 14.6181 10.7673 14.7605 10.7965 14.9073L11.0673 16.2615C11.0863 16.3568 11.1551 16.4343 11.2472 16.4651L13.6847 17.2776C13.7123 17.2874 13.7416 17.2917 13.7703 17.2917C13.8028 17.2917 13.8347 17.2858 13.8656 17.2749L16.0323 16.4624C16.1222 16.4283 16.1877 16.3498 16.204 16.255L17.2873 10.0258C17.3009 9.94722 17.2792 9.8665 17.2277 9.80529Z" fill="#7672FF"/>
</svg>
