<svg width="26" height="27" viewBox="0 0 26 27" fill="none" xmlns="http://www.w3.org/2000/svg">
<rect opacity="0.2" width="26" height="27" rx="5" fill="#FF7262"/>
<path d="M11 21C12.38 21 13.5 19.88 13.5 18.5V16H11C9.62 16 8.5 17.12 8.5 18.5C8.5 19.88 9.62 21 11 21Z" fill="#0ACF83"/>
<path d="M8.5 13.5C8.5 12.12 9.62 11 11 11H13.5V16H11C9.62 16 8.5 14.88 8.5 13.5Z" fill="#A259FF"/>
<path d="M8.5 8.5C8.5 7.12 9.62 6 11 6H13.5V11H11C9.62 11 8.5 9.88 8.5 8.5Z" fill="#F24E1E"/>
<path d="M13.5 6H16C17.38 6 18.5 7.12 18.5 8.5C18.5 9.88 17.38 11 16 11H13.5V6Z" fill="#FF7262"/>
<path d="M18.5 13.5C18.5 14.88 17.38 16 16 16C14.62 16 13.5 14.88 13.5 13.5C13.5 12.12 14.62 11 16 11C17.38 11 18.5 12.12 18.5 13.5Z" fill="#1ABCFE"/>
</svg>
