<svg width="26" height="27" viewBox="0 0 26 27" fill="none" xmlns="http://www.w3.org/2000/svg">
<rect opacity="0.2" width="26" height="27" rx="5" fill="#FF7262"/>
<path d="M13.5 6.0625C13.2323 6.0625 12.9708 6.16003 12.7695 6.36133L11.2754 7.87207C11.1945 7.91565 11.126 7.97791 11.0762 8.05469L6.36133 12.7695C5.95874 13.17 5.95874 13.8279 6.36133 14.2305L12.7695 20.6387C13.1721 21.0392 13.8279 21.0392 14.2305 20.6387L20.6387 14.2305C21.0413 13.83 21.0413 13.1721 20.6387 12.7695L14.2305 6.36133C14.0292 6.16003 13.7677 6.0625 13.5 6.0625ZM13.5 7.1416L19.8584 13.5L13.5 19.8584L7.1416 13.5L11.541 9.10059L12.4707 10.0303C12.4458 10.1195 12.4375 10.215 12.4375 10.3125C12.4375 10.7047 12.6512 11.0409 12.9688 11.2256V15.7744C12.6512 15.9591 12.4375 16.2953 12.4375 16.6875C12.4375 17.2748 12.9127 17.75 13.5 17.75C14.0873 17.75 14.5625 17.2748 14.5625 16.6875C14.5625 16.2953 14.3488 15.9591 14.0312 15.7744V11.6074L15.6582 13.2344C15.6354 13.3195 15.625 13.4087 15.625 13.5C15.625 14.0873 16.1002 14.5625 16.6875 14.5625C17.2748 14.5625 17.75 14.0873 17.75 13.5C17.75 12.9127 17.2748 12.4375 16.6875 12.4375C16.5962 12.4375 16.507 12.4479 16.4219 12.4707L14.5293 10.5781C14.5521 10.493 14.5625 10.4038 14.5625 10.3125C14.5625 9.72522 14.0873 9.25 13.5 9.25C13.4025 9.25 13.307 9.2583 13.2178 9.2832L12.2881 8.35352L13.5 7.1416Z" fill="#F05032"/>
</svg>
