<svg width="26" height="27" viewBox="0 0 26 27" fill="none" xmlns="http://www.w3.org/2000/svg">
<rect opacity="0.2" width="26" height="27" rx="5" fill="#FFA56F"/>
<path d="M19.3885 7.08937C19.337 7.0325 19.2639 7 19.1875 7H7.8125C7.73559 7 7.663 7.0325 7.61154 7.08937C7.56007 7.14572 7.53516 7.22153 7.54275 7.29791L8.62609 18.1312C8.63638 18.2369 8.70844 18.3273 8.80972 18.3609L13.6847 19.9859C13.7123 19.9957 13.7416 20 13.7703 20C13.8028 20 13.8348 19.994 13.8662 19.9827L18.1995 18.3577C18.2959 18.3219 18.3637 18.2336 18.3739 18.1312L19.4573 7.29791C19.4648 7.22209 19.4399 7.14572 19.3885 7.08937ZM17.8507 17.9097L13.7649 19.4421L9.14716 17.9027L8.11097 7.54166H18.8874L17.8507 17.9097Z" fill="#FF5C00"/>
<path d="M17.0203 9.70834H10.5203C10.4434 9.70834 10.3708 9.74084 10.3193 9.79772C10.2678 9.85406 10.2429 9.92988 10.2505 10.0063L10.5214 12.7146C10.5355 12.8527 10.6519 12.9583 10.7911 12.9583H16.1628L15.6932 16.0106L13.7649 16.7338L11.5673 16.0009L11.3274 14.8011C11.2981 14.6548 11.1562 14.559 11.0089 14.5888C10.8626 14.618 10.7673 14.7605 10.7965 14.9073L11.0674 16.2614C11.0863 16.3568 11.1551 16.4342 11.2472 16.4651L13.6847 17.2776C13.7123 17.2873 13.7416 17.2917 13.7703 17.2917C13.8028 17.2917 13.8348 17.2857 13.8656 17.2743L16.0323 16.4618C16.1238 16.4277 16.1899 16.3464 16.2046 16.2495L16.7462 12.7286C16.7581 12.6501 16.7354 12.571 16.6839 12.5109C16.633 12.4508 16.5577 12.4166 16.4786 12.4166H11.0365L10.8198 10.25H17.0203C17.1698 10.25 17.2911 10.1287 17.2911 9.97916C17.2911 9.82966 17.1698 9.70834 17.0203 9.70834Z" fill="#FF5C00"/>
</svg>
