<svg width="26" height="27" viewBox="0 0 26 27" fill="none" xmlns="http://www.w3.org/2000/svg">
<rect opacity="0.2" width="26" height="27" rx="5" fill="#FFD600"/>
<path d="M14.6667 13.375C14.6667 12.5696 15.3196 11.9167 16.125 11.9167H17.375C17.7202 11.9167 18 12.1965 18 12.5417C18 12.8868 17.7202 13.1667 17.375 13.1667H16.125C16.0099 13.1667 15.9167 13.2599 15.9167 13.375V14.625C15.9167 14.7401 16.0099 14.8333 16.125 14.8333H16.5417C17.3471 14.8333 18 15.4863 18 16.2917V17.5417C18 18.3471 17.3471 19 16.5417 19H15.2917C14.9465 19 14.6667 18.7202 14.6667 18.375C14.6667 18.0298 14.9465 17.75 15.2917 17.75H16.5417C16.6568 17.75 16.75 17.6568 16.75 17.5417V16.2917C16.75 16.1766 16.6568 16.0833 16.5417 16.0833H16.125C15.3196 16.0833 14.6667 15.4304 14.6667 14.625V13.375Z" fill="#212121"/>
<path d="M13.625 12.5417C13.625 12.1965 13.3452 11.9167 13 11.9167C12.6548 11.9167 12.375 12.1965 12.375 12.5417V17.5417C12.375 17.6568 12.2817 17.75 12.1667 17.75H11.125C10.7798 17.75 10.5 18.0298 10.5 18.375C10.5 18.7202 10.7798 19 11.125 19H12.1667C12.9721 19 13.625 18.3471 13.625 17.5417V12.5417Z" fill="#212121"/>
<path d="M5.5 9.20833C5.5 7.71256 6.71256 6.5 8.20833 6.5H17.7917C19.2874 6.5 20.5 7.71256 20.5 9.20833V18.7917C20.5 20.2874 19.2874 21.5 17.7917 21.5H8.20833C6.71256 21.5 5.5 20.2874 5.5 18.7917V9.20833ZM8.20833 7.75C7.40292 7.75 6.75 8.40292 6.75 9.20833V18.7917C6.75 19.5971 7.40292 20.25 8.20833 20.25H17.7917C18.5971 20.25 19.25 19.5971 19.25 18.7917V9.20833C19.25 8.40292 18.5971 7.75 17.7917 7.75H8.20833Z" fill="#FFD600"/>
</svg>
