<svg width="26" height="27" viewBox="0 0 26 27" fill="none" xmlns="http://www.w3.org/2000/svg">
<rect opacity="0.2" width="26" height="27" rx="5" fill="#C5C5C5"/>
<path d="M12.9433 5.00457C12.9067 5.0079 12.7904 5.01953 12.6857 5.02784C10.2712 5.2455 8.00948 6.54814 6.57703 8.55029C5.77937 9.66352 5.26921 10.9263 5.07644 12.2638C5.00831 12.7307 5 12.8686 5 13.5017C5 14.1347 5.00831 14.2726 5.07644 14.7395C5.53842 17.9313 7.81007 20.613 10.891 21.6066C11.4427 21.7844 12.0243 21.9057 12.6857 21.9788C12.9433 22.0071 14.0567 22.0071 14.3143 21.9788C15.4559 21.8525 16.4231 21.5701 17.3769 21.0832C17.5232 21.0085 17.5514 20.9885 17.5315 20.9719C17.5182 20.962 16.895 20.1262 16.1472 19.116L14.7879 17.28L13.0846 14.7594C12.1473 13.3737 11.3762 12.2406 11.3696 12.2406C11.363 12.2389 11.3563 13.3588 11.353 14.7262C11.348 17.1205 11.3463 17.2169 11.3164 17.2733C11.2732 17.3548 11.24 17.388 11.1702 17.4245C11.117 17.4511 11.0705 17.4561 10.8196 17.4561H10.5321L10.4556 17.4079C10.4058 17.3764 10.3692 17.3348 10.3443 17.2866L10.3094 17.2119L10.3127 13.8805L10.3177 10.5475L10.3692 10.4827C10.3958 10.4478 10.4523 10.4029 10.4922 10.3813C10.5603 10.3481 10.5869 10.3447 10.8744 10.3447C11.2134 10.3447 11.2699 10.358 11.358 10.4544C11.3829 10.481 12.3052 11.87 13.4086 13.5432C14.512 15.2164 16.0209 17.501 16.7621 18.6225L18.1081 20.6612L18.1762 20.6164C18.7795 20.2242 19.4176 19.666 19.9228 19.0844C20.9979 17.8499 21.6909 16.3446 21.9236 14.7395C21.9917 14.2726 22 14.1347 22 13.5017C22 12.8686 21.9917 12.7307 21.9236 12.2638C21.4616 9.07201 19.1899 6.39029 16.109 5.3967C15.5656 5.22057 14.9873 5.09928 14.3392 5.02617C14.1797 5.00956 13.0812 4.99128 12.9433 5.00457ZM16.4231 10.1454C16.5028 10.1852 16.5676 10.2617 16.5909 10.3414C16.6042 10.3846 16.6075 11.3084 16.6042 13.3903L16.5992 16.3778L16.0724 15.5703L15.544 14.7628V12.5911C15.544 11.1871 15.5506 10.3979 15.5606 10.3597C15.5872 10.2667 15.6454 10.1935 15.7251 10.1503C15.7933 10.1155 15.8182 10.1121 16.0791 10.1121C16.325 10.1121 16.3682 10.1155 16.4231 10.1454Z" fill="black"/>
</svg>
