<svg width="26" height="27" viewBox="0 0 26 27" fill="none" xmlns="http://www.w3.org/2000/svg">
<rect opacity="0.2" width="26" height="27" rx="5" fill="#47C93C"/>
<g clip-path="url(#clip0_101_6)">
<path d="M12.9326 22C12.7183 22 12.5055 21.9438 12.3177 21.8356L10.3604 20.6768C10.068 20.5133 10.2107 20.4555 10.3071 20.4222C10.6969 20.2857 10.776 20.2549 11.192 20.0186C11.2358 19.9937 11.293 20.0025 11.3378 20.0289L12.8414 20.9212C12.8957 20.9505 12.9728 20.9505 13.0231 20.9212L18.8861 17.537C18.9404 17.5061 18.9756 17.443 18.9756 17.3785V10.613C18.9756 10.5454 18.9404 10.4853 18.8849 10.4515L13.0243 7.07023C12.97 7.03794 12.8981 7.03794 12.8438 7.07023L6.98435 10.4515C6.92755 10.4838 6.89145 10.5469 6.89145 10.6115V17.377C6.89145 17.4416 6.92667 17.5032 6.98244 17.534L8.58796 18.4615C9.4597 18.8974 9.99243 18.3838 9.99243 17.8672V11.1897C9.99243 11.0943 10.0673 11.0209 10.1627 11.0209H10.9053C10.9977 11.0209 11.074 11.0943 11.074 11.1897V17.8701C11.074 19.0324 10.44 19.7002 9.33789 19.7002C8.99888 19.7002 8.73179 19.7002 7.98626 19.3333L6.44824 18.4469C6.06814 18.2267 5.83333 17.8158 5.83333 17.377V10.6115C5.83333 10.1712 6.06814 9.76029 6.44824 9.54309L12.3171 6.1574C12.6884 5.94753 13.1815 5.94753 13.5498 6.1574L19.4113 9.54456C19.79 9.76323 20.0262 10.1727 20.0262 10.613V17.3785C20.0262 17.8173 19.79 18.2267 19.4113 18.4469L13.5498 21.8326C13.362 21.9412 13.1492 21.9969 12.932 21.9969L12.9326 22ZM14.7436 17.3381C12.1782 17.3381 11.6404 16.1605 11.6404 15.1728C11.6404 15.0789 11.7161 15.0041 11.8102 15.0041H12.5674C12.6511 15.0041 12.7215 15.065 12.7347 15.1476C12.8492 15.9193 13.1897 16.3085 14.7409 16.3085C15.9766 16.3085 16.502 16.0293 16.502 15.3741C16.502 14.9969 16.3523 14.7166 14.4327 14.5287C12.8272 14.3702 11.8351 14.0165 11.8351 12.7324C11.8351 11.5496 12.8331 10.8451 14.5046 10.8451C16.3817 10.8451 17.3121 11.4967 17.4295 12.8968C17.4339 12.9452 17.4163 12.9922 17.384 13.0274C17.3517 13.0612 17.3062 13.0817 17.2593 13.0817H16.4976C16.4183 13.0817 16.3494 13.0259 16.3332 12.9496C16.1498 12.1381 15.7066 11.8783 14.5017 11.8783C13.153 11.8783 12.996 12.3479 12.996 12.7001C12.996 13.1272 13.1809 13.2519 15.0007 13.4926C16.8029 13.7318 17.6584 14.0694 17.6584 15.3359C17.6584 16.6127 16.593 17.345 14.735 17.345L14.7436 17.3381Z" fill="#689F63"/>
</g>
<defs>
<clipPath id="clip0_101_6">
<rect width="16" height="16" fill="white" transform="translate(5 6)"/>
</clipPath>
</defs>
</svg>
