<svg width="26" height="27" viewBox="0 0 26 27" fill="none" xmlns="http://www.w3.org/2000/svg">
<rect opacity="0.2" width="26" height="27" rx="5" fill="#597F9D"/>
<path d="M20.7164 16.9821C20.6292 16.718 20.4007 16.5341 20.1052 16.4899C19.9659 16.4691 19.8063 16.478 19.6176 16.5169C19.2885 16.5848 19.0443 16.6106 18.8662 16.6156C19.5387 15.4801 20.0856 14.1852 20.4004 12.9663C20.9094 10.9954 20.6374 10.0975 20.3195 9.69131C19.4783 8.61635 18.2508 8.03884 16.77 8.02113C15.9801 8.01149 15.2866 8.16746 14.9249 8.27959C14.588 8.2202 14.2258 8.18701 13.8458 8.18086C13.1335 8.16951 12.5042 8.32477 11.9664 8.6439C11.6686 8.54326 11.1908 8.40133 10.639 8.31073C9.34111 8.09766 8.29512 8.2637 7.53002 8.8042C6.60354 9.45865 6.17403 10.5957 6.25348 12.1838C6.27867 12.688 6.56075 14.222 7.00484 15.6769C7.26007 16.5132 7.53223 17.2076 7.81377 17.7411C8.21302 18.4977 8.64021 18.9432 9.11981 19.1032C9.38864 19.1927 9.87704 19.2554 10.3908 18.8277C10.4559 18.9065 10.5427 18.9848 10.658 19.0576C10.8044 19.15 10.9835 19.2254 11.1622 19.2701C11.8066 19.4312 12.4102 19.3909 12.9252 19.1651C12.9283 19.2567 12.9308 19.3442 12.9329 19.4198C12.9363 19.5423 12.9397 19.6625 12.9442 19.7749C12.9747 20.5348 13.0264 21.1256 13.1795 21.539C13.1879 21.5618 13.1993 21.5964 13.2112 21.6332C13.2876 21.8672 13.4154 22.2588 13.7405 22.5656C14.0772 22.8834 14.4844 22.9809 14.8573 22.9808C15.0444 22.9808 15.2228 22.9563 15.3794 22.9228C15.9374 22.8032 16.571 22.621 17.0294 21.9683C17.4628 21.3513 17.6735 20.4219 17.7116 18.9575C17.7166 18.9161 17.7211 18.8765 17.7255 18.8389C17.7285 18.8134 17.7315 18.7874 17.7346 18.7615L17.8367 18.7705L17.863 18.7722C18.4313 18.7981 19.1262 18.6776 19.553 18.4794C19.8902 18.3229 20.9708 17.7524 20.7164 16.9821Z" fill="black"/>
<path d="M19.7446 17.132C18.0549 17.4805 17.9387 16.9084 17.9387 16.9084C19.7228 14.2611 20.4687 10.9007 19.825 10.0782C18.0692 7.83476 15.0297 8.89577 14.9789 8.92332L14.9626 8.92624C14.6288 8.85694 14.2552 8.81565 13.8353 8.8088C13.0707 8.79627 12.4907 9.00925 12.0506 9.34299C12.0506 9.34299 6.62844 7.10927 6.88062 12.1523C6.93426 13.2252 8.41834 20.2701 10.1885 18.1422C10.8355 17.3641 11.4606 16.7062 11.4606 16.7062C11.7711 16.9125 12.1428 17.0177 12.5325 16.9799L12.5627 16.9542C12.5533 17.0508 12.5576 17.1453 12.5748 17.2572C12.1188 17.7667 12.2528 17.8561 11.3412 18.0438C10.4188 18.2339 10.9607 18.5723 11.3145 18.6607C11.7434 18.768 12.7357 18.9199 13.4062 17.9814L13.3794 18.0885C13.5581 18.2316 13.6836 19.0193 13.6625 19.7334C13.6415 20.4476 13.6275 20.9379 13.7682 21.3208C13.909 21.7038 14.0493 22.5654 15.2477 22.3086C16.2491 22.094 16.768 21.538 16.8402 20.6104C16.8914 19.9509 17.0073 20.0484 17.0146 19.4588L17.1076 19.1797C17.2148 18.2858 17.1246 17.9974 17.7416 18.1315L17.8915 18.1447C18.3456 18.1654 18.9398 18.0717 19.2886 17.9096C20.0397 17.561 20.4851 16.979 19.7446 17.132H19.7446Z" fill="#336791"/>
<path d="M12.368 12.6321C12.2157 12.6109 12.0778 12.6305 12.008 12.6833C11.9688 12.7131 11.9566 12.7475 11.9534 12.7712C11.9446 12.834 11.9886 12.9034 12.0156 12.9392C12.0921 13.0405 12.2038 13.1102 12.3144 13.1256C12.3304 13.1278 12.3463 13.1289 12.3622 13.1289C12.5466 13.1289 12.7142 12.9853 12.729 12.8793C12.7475 12.7466 12.5548 12.6581 12.368 12.6321Z" fill="white"/>
<path d="M17.4125 12.6363H17.4125C17.398 12.5323 17.2128 12.5026 17.0371 12.527C16.8617 12.5515 16.6916 12.6307 16.7058 12.7349C16.7172 12.816 16.8636 12.9545 17.0369 12.9544C17.0515 12.9544 17.0663 12.9535 17.0812 12.9514C17.1969 12.9353 17.2818 12.8619 17.3221 12.8195C17.3835 12.755 17.419 12.6831 17.4125 12.6363Z" fill="white"/>
<path d="M20.3069 17.0924C20.2425 16.8975 20.0351 16.8348 19.6906 16.906C18.6676 17.1171 18.3012 16.9709 18.1809 16.8823C18.9761 15.6709 19.6302 14.2066 19.9831 12.8404C20.1503 12.1932 20.2426 11.5922 20.2502 11.1024C20.2585 10.5646 20.167 10.1696 19.9781 9.9282C19.2166 8.95516 18.099 8.43324 16.7461 8.4189C15.8161 8.40845 15.0303 8.64648 14.878 8.7134C14.5571 8.63362 14.2074 8.58464 13.8267 8.57839C13.1285 8.56711 12.525 8.73426 12.0253 9.07495C11.8083 8.9942 11.2474 8.80165 10.5614 8.69116C9.3755 8.50019 8.43314 8.64487 7.76062 9.12131C6.95817 9.68983 6.58772 10.7061 6.6595 12.1417C6.68365 12.6248 6.95884 14.1107 7.39319 15.5337C7.9649 17.4066 8.58632 18.467 9.24023 18.685C9.31675 18.7106 9.40503 18.7284 9.50232 18.7284C9.74085 18.7284 10.0333 18.6209 10.3376 18.2551C10.8429 17.6471 11.3148 17.1376 11.4888 16.9525C11.7458 17.0905 12.0282 17.1675 12.317 17.1752C12.3175 17.1828 12.3183 17.1903 12.319 17.1979C12.261 17.2666 12.2135 17.3268 12.173 17.3783C11.9729 17.6323 11.9312 17.6852 11.287 17.8178C11.1038 17.8556 10.6171 17.9559 10.61 18.297C10.6023 18.6697 11.1853 18.8263 11.2517 18.8429C11.4832 18.9008 11.7062 18.9294 11.9188 18.9294C12.4361 18.9294 12.8912 18.7594 13.255 18.4305C13.2438 19.7592 13.2992 21.0686 13.4587 21.4675C13.5894 21.7941 13.9086 22.5922 14.917 22.5921C15.0649 22.5921 15.2277 22.575 15.4069 22.5366C16.4592 22.3109 16.9162 21.8458 17.093 20.8205C17.1876 20.2725 17.3499 18.9638 17.4262 18.2619C17.5874 18.3122 17.7948 18.3352 18.0191 18.3352C18.4868 18.3352 19.0265 18.2358 19.365 18.0787C19.7452 17.9021 20.4314 17.4688 20.3069 17.0924ZM17.8009 12.3491C17.7974 12.5564 17.7689 12.7445 17.7387 12.9409C17.7062 13.152 17.6725 13.3704 17.664 13.6355C17.6557 13.8934 17.6879 14.1616 17.7191 14.421C17.782 14.9448 17.8466 15.4841 17.5965 16.0163C17.5576 15.9473 17.5201 15.8719 17.4857 15.7885C17.4546 15.7132 17.3872 15.5922 17.2937 15.4246C16.9301 14.7726 16.0787 13.2457 16.5146 12.6226C16.6444 12.4371 16.9738 12.2465 17.8009 12.3491ZM16.7984 8.83853C18.0106 8.86531 18.9694 9.31877 19.6483 10.1863C20.169 10.8516 19.5956 13.8793 17.9358 16.4913C17.9194 16.4705 17.9027 16.4494 17.8854 16.4279C17.8785 16.4192 17.8715 16.4105 17.8644 16.4016C18.2933 15.6932 18.2095 14.9924 18.1348 14.371C18.1042 14.116 18.0752 13.8752 18.0826 13.6489C18.0902 13.4091 18.1219 13.2035 18.1525 13.0046C18.1903 12.7595 18.2286 12.506 18.218 12.207C18.2259 12.1757 18.2291 12.1386 18.225 12.0947C18.1979 11.808 17.8707 10.9501 17.2036 10.1736C16.8388 9.74892 16.3066 9.27362 15.5801 8.95305C15.8926 8.88828 16.32 8.82788 16.7984 8.83853ZM10.0156 17.9874C9.68035 18.3904 9.44884 18.3132 9.37272 18.2878C8.87666 18.1224 8.30112 17.074 7.79368 15.4115C7.35459 13.9729 7.09798 12.5264 7.07769 12.1208C7.01356 10.838 7.32453 9.94392 8.00198 9.46348C9.10448 8.68162 10.9171 9.1496 11.6455 9.38696C11.635 9.39727 11.6241 9.40695 11.6137 9.41743C10.4185 10.6245 10.4469 12.6868 10.4498 12.8128C10.4497 12.8615 10.4538 12.9303 10.4594 13.0251C10.48 13.3719 10.5182 14.0175 10.416 14.7486C10.321 15.428 10.5304 16.0929 10.9905 16.573C11.0381 16.6226 11.0878 16.6693 11.1392 16.7132C10.9344 16.9325 10.4893 17.4175 10.0156 17.9874ZM11.2928 16.2832C10.922 15.8963 10.7536 15.3582 10.8307 14.8066C10.9387 14.0342 10.8988 13.3616 10.8774 13.0003C10.8744 12.9497 10.8717 12.9054 10.8702 12.8704C11.0448 12.7157 11.8539 12.2821 12.4309 12.4143C12.6943 12.4746 12.8547 12.6539 12.9214 12.9624C13.2667 14.5591 12.9671 15.2246 12.7264 15.7594C12.6768 15.8696 12.63 15.9737 12.5899 16.0815L12.5589 16.1648C12.4804 16.3754 12.4073 16.5711 12.362 16.7571C11.9679 16.7559 11.5844 16.5875 11.2928 16.2832ZM11.3533 18.4367C11.2382 18.4079 11.1347 18.3579 11.0739 18.3165C11.1247 18.2926 11.215 18.2602 11.3715 18.2279C12.1293 18.0719 12.2463 17.9618 12.5019 17.6373C12.5605 17.5629 12.6269 17.4786 12.7189 17.3759C12.7189 17.3758 12.719 17.3758 12.719 17.3757C12.856 17.2224 12.9187 17.2484 13.0323 17.2955C13.1244 17.3336 13.2141 17.449 13.2505 17.5761C13.2677 17.6361 13.2871 17.75 13.2238 17.8386C12.6899 18.5861 11.912 18.5765 11.3533 18.4367ZM15.3191 22.1271C14.3921 22.3258 14.0638 21.8528 13.8475 21.312C13.7079 20.9629 13.6393 19.3887 13.688 17.6502C13.6887 17.6271 13.6854 17.6047 13.679 17.5837C13.6734 17.5432 13.6649 17.5022 13.6531 17.4609C13.5807 17.2079 13.4043 16.9963 13.1926 16.9086C13.1085 16.8738 12.9542 16.8099 12.7687 16.8573C12.8083 16.6944 12.8769 16.5104 12.9512 16.3111L12.9824 16.2273C13.0176 16.1328 13.0616 16.0349 13.1082 15.9313C13.3601 15.3717 13.7051 14.6053 13.3307 12.8738C13.1904 12.2253 12.7222 11.9087 12.0123 11.9822C11.5866 12.0262 11.1973 12.198 11.0031 12.2964C10.9614 12.3176 10.9232 12.338 10.8875 12.3579C10.9417 11.7045 11.1465 10.4834 11.9125 9.71079C12.3948 9.22437 13.0372 8.98415 13.8198 8.99709C15.3618 9.02235 16.3507 9.81372 16.9088 10.4732C17.3896 11.0414 17.6501 11.6139 17.754 11.9226C16.9725 11.8431 16.4409 11.9974 16.1715 12.3826C15.5853 13.2205 16.4922 14.8469 16.928 15.6286C17.0079 15.7718 17.0769 15.8956 17.0986 15.9482C17.2406 16.2922 17.4243 16.5219 17.5585 16.6895C17.5996 16.7409 17.6395 16.7907 17.6698 16.8342C17.4331 16.9025 17.008 17.0601 17.0467 17.8482C17.0155 18.2437 16.7932 20.0952 16.6803 20.7493C16.5313 21.6135 16.2133 21.9354 15.3191 22.1271ZM19.1887 17.6989C18.9466 17.8113 18.5416 17.8955 18.1568 17.9136C17.7318 17.9335 17.5154 17.866 17.4646 17.8245C17.4406 17.3334 17.6235 17.2821 17.8169 17.2277C17.8473 17.2192 17.877 17.2109 17.9056 17.2009C17.9234 17.2153 17.9429 17.2297 17.9642 17.2438C18.3058 17.4693 18.9151 17.4936 19.7753 17.316C19.7784 17.3154 19.7816 17.3148 19.7847 17.3141C19.6687 17.4226 19.4702 17.5682 19.1887 17.6989Z" fill="white"/>
</svg>
