<svg width="26" height="27" viewBox="0 0 26 27" fill="none" xmlns="http://www.w3.org/2000/svg">
<rect opacity="0.2" width="26" height="27" rx="5" fill="#FFD600"/>
<path d="M13.4389 6.11563C9.66703 6.11563 9.90556 7.74657 9.90556 7.74657V9.44125H13.4926V9.9725H8.47703C8.47703 9.9725 6.0625 9.675 6.0625 13.5027C6.0625 17.3303 8.19441 17.1747 8.19441 17.1747H9.42531V15.3891C9.42531 15.3891 9.35625 13.2572 11.4972 13.2572H15.0895C15.0895 13.2572 17.0934 13.2891 17.0934 11.3171V8.08125C17.0934 8.08125 17.3972 6.10925 13.4586 6.10925L13.4389 6.11563ZM11.4563 7.25091C11.5838 7.24769 11.7094 7.28236 11.8172 7.35054C11.925 7.41871 12.0102 7.51733 12.062 7.63391C12.1138 7.7505 12.1298 7.87982 12.1081 8.00551C12.0863 8.13121 12.0278 8.24764 11.9399 8.34008C11.852 8.43252 11.7387 8.49681 11.6142 8.52483C11.4898 8.55285 11.3598 8.54333 11.2408 8.49749C11.1217 8.45164 11.019 8.37153 10.9454 8.26727C10.8719 8.16302 10.831 8.03931 10.8278 7.91178V7.90116C10.8278 7.81646 10.8445 7.7326 10.8769 7.65435C10.9093 7.5761 10.9568 7.50501 11.0167 7.44512C11.0766 7.38523 11.1477 7.33773 11.2259 7.30531C11.3042 7.2729 11.3881 7.25622 11.4728 7.25622L11.4563 7.25091Z" fill="url(#paint0_linear_102_55)"/>
<path d="M13.5452 20.8897C17.317 20.8897 17.0785 19.2534 17.0785 19.2534V17.5641H13.492V17.0328H18.523C18.523 17.0328 20.9375 17.3027 20.9375 13.4973C20.9375 9.692 18.8056 9.82534 18.8056 9.82534H17.5587V11.5875C17.5587 11.5875 17.6278 13.7194 15.4869 13.7194H11.893C11.893 13.7194 9.88749 13.6891 9.88749 15.6611V18.9187C9.88749 18.9187 9.58362 20.8907 13.5223 20.8907H13.5436L13.5452 20.8897ZM15.5278 19.7491C15.4003 19.7523 15.2746 19.7176 15.1668 19.6495C15.059 19.5813 14.9738 19.4827 14.9221 19.3661C14.8703 19.2495 14.8543 19.1202 14.876 18.9945C14.8977 18.8688 14.9563 18.7524 15.0442 18.6599C15.1321 18.5675 15.2454 18.5032 15.3699 18.4752C15.4943 18.4472 15.6243 18.4567 15.7433 18.5025C15.8623 18.5484 15.9651 18.6285 16.0386 18.7327C16.1121 18.837 16.1531 18.9607 16.1562 19.0882V19.1042C16.1562 19.2752 16.0883 19.4392 15.9673 19.5602C15.8464 19.6811 15.6824 19.7491 15.5113 19.7491H15.5272H15.5278Z" fill="url(#paint1_linear_102_55)"/>
<defs>
<linearGradient id="paint0_linear_102_55" x1="7.53255" y1="7.56217" x2="14.5911" y2="14.6047" gradientUnits="userSpaceOnUse">
<stop stop-color="#387EB8"/>
<stop offset="1" stop-color="#366994"/>
</linearGradient>
<linearGradient id="paint1_linear_102_55" x1="11.7084" y1="12.1499" x2="19.7728" y2="19.1903" gradientUnits="userSpaceOnUse">
<stop stop-color="#FFE052"/>
<stop offset="1" stop-color="#FFC331"/>
</linearGradient>
</defs>
</svg>
