<svg width="26" height="27" viewBox="0 0 26 27" fill="none" xmlns="http://www.w3.org/2000/svg">
<rect opacity="0.2" width="26" height="27" rx="5" fill="#52FFF5"/>
<path d="M18.1516 19.6065C19.3759 18.7188 18.3439 15.2071 15.8467 11.7628C13.3494 8.31855 10.3325 6.24601 9.10824 7.13368C7.88394 8.02135 8.91587 11.5331 11.4131 14.9774C13.9104 18.4216 16.9273 20.4942 18.1516 19.6065Z" stroke="#26CDE3" stroke-linecap="round" stroke-linejoin="round"/>
<path d="M15.6182 14.9333C18.0469 11.4403 19.0092 7.9089 17.7676 7.0456C16.526 6.18231 13.5506 8.31407 11.122 11.807C8.69329 15.3 7.73098 18.8314 8.97258 19.6947C10.2142 20.558 13.1895 18.4263 15.6182 14.9333Z" stroke="#26CDE3" stroke-linecap="round" stroke-linejoin="round"/>
<path d="M13.5 14.2969C13.9401 14.2969 14.2969 13.9401 14.2969 13.5C14.2969 13.0599 13.9401 12.7031 13.5 12.7031C13.0599 12.7031 12.7031 13.0599 12.7031 13.5C12.7031 13.9401 13.0599 14.2969 13.5 14.2969Z" fill="#26CDE3"/>
<path d="M21.15 13.5C21.15 12.0917 17.725 10.95 13.5 10.95C9.27506 10.95 5.85004 12.0917 5.85004 13.5C5.85004 14.9083 9.27506 16.05 13.5 16.05C17.725 16.05 21.15 14.9083 21.15 13.5Z" stroke="#26CDE3" stroke-linecap="round" stroke-linejoin="round"/>
</svg>
